<?xml version="1.0" encoding="utf-8"?>
<!-- Generator: Adobe Illustrator 21.0.2, SVG Export Plug-In . SVG Version: 6.00 Build 0)  -->
<svg version="1.1" id="Layer_1" xmlns="http://www.w3.org/2000/svg" xmlns:xlink="http://www.w3.org/1999/xlink" x="0px" y="0px"
	 viewBox="0 0 126.4 73.2" style="enable-background:new 0 0 126.4 73.2;" xml:space="preserve">
<style type="text/css">
	.st0{fill:none;stroke:#86BBE5;stroke-miterlimit:10;}
	.st1{fill:#86BBE5;}
	.st2{fill:none;stroke:#729ED4;stroke-miterlimit:10;}
	.st3{fill:#86BBE5;stroke:#1F1926;stroke-width:0.4159;stroke-miterlimit:10;}
</style>
<g>
	<g>
		<line class="st0" x1="0" y1="52.7" x2="126.4" y2="52.7"/>
		<path class="st1" d="M99.3,52.7c-3.8-16.4-18.5-28.6-36.1-28.6c-17.6,0-32.3,12.2-36.1,28.6"/>
	</g>
	<line class="st2" x1="62.5" y1="18.7" x2="62.5" y2="0"/>
	<line class="st2" x1="86.2" y1="29.1" x2="96.2" y2="19"/>
	<line class="st2" x1="38.7" y1="28.9" x2="29" y2="19.2"/>
	<g>
		
			<rect x="57.7" y="64.7" transform="matrix(5.176308e-03 -1 1 5.176308e-03 -4.6654 130.346)" class="st3" width="10.9" height="5.6"/>
		<polygon class="st3" points="63.2,55.2 65.8,59.6 68.3,64 63.2,64 58.1,63.9 60.7,59.5 		"/>
	</g>
	<path class="st3" d="M33.9,48.1c0,0,5.3-15,28.3-19.2"/>
</g>
</svg>
