<?xml version="1.0" encoding="utf-8"?>
<!-- Generator: Adobe Illustrator 21.0.2, SVG Export Plug-In . SVG Version: 6.00 Build 0)  -->
<svg version="1.1" id="Layer_1" xmlns="http://www.w3.org/2000/svg" xmlns:xlink="http://www.w3.org/1999/xlink" x="0px" y="0px"
	 viewBox="0 0 164 37.7" style="enable-background:new 0 0 164 37.7;" xml:space="preserve">
<style type="text/css">
	.st0{fill:#9ACFF0;}
	.st1{fill:#231F20;stroke:#1D1625;stroke-width:4.000000e-02;stroke-miterlimit:10;}
	.st2{fill:#729ED4;stroke:#1D1625;stroke-width:4.000000e-02;stroke-miterlimit:10;}
	.st3{fill:#C5E3F2;stroke:#1D1625;stroke-width:4.000000e-02;stroke-miterlimit:10;}
	.st4{fill:#87BDE6;stroke:#1D1625;stroke-width:4.000000e-02;stroke-miterlimit:10;}
	.st5{fill:#9BD0F1;stroke:#1D1625;stroke-width:4.000000e-02;stroke-miterlimit:10;}
</style>
<title>WeatherLogo</title>
<g id="Layer_4">
	<path class="st0" d="M7.2,35.7c-1.3-0.4-1.7-0.6-1.7-1.5c0-0.8,0.3-3.6,0.4-5.3c-1.1,2.1-2.8,5.4-3.3,6.4c-0.3,0.5-0.5,0.5-1.1,0.4
		c-0.4-0.1-0.8-0.2-1.1-0.4C0.1,35.2,0,34.9,0,34.6c0.3-3.7,0.8-7.5,1.5-11.2C1.6,23,1.8,22.8,2,22.8c0.6,0.1,1.1,0.2,1.6,0.5
		c0.3,0.2,0.4,0.5,0.3,1.1c-0.2,1-1,4.8-1.4,7.1c1.2-2.5,3.2-6.5,3.7-7.3c0.3-0.4,0.4-0.5,1-0.3c0.3,0.1,0.7,0.2,0.9,0.4
		c0.3,0.2,0.4,0.5,0.3,1S8,29.4,7.6,31.8c1.2-3.1,3.3-7.6,3.9-8.7c0.3-0.5,0.5-0.5,1-0.3c0.4,0.2,0.7,0.4,1,0.8
		c0.3,0.4,0.2,0.7,0,1.2c-1.3,2.6-3.9,7.8-5.1,10.5C8.2,35.9,7.9,35.9,7.2,35.7z"/>
	<path class="st0" d="M14.1,23.9c-0.1-0.4,0-0.5,0.3-0.6c1.9-0.4,3.8-0.7,5.8-0.8c0.4,0,0.7,0.2,0.8,0.6c0.1,0.4,0.2,0.7,0.2,1.1
		c0,0.4-0.1,0.6-0.5,0.6c-0.9,0.1-2.1,0.2-3.1,0.4c-0.3,0.8-0.7,1.8-1,2.7c0.5-0.1,1-0.1,1.5-0.1c0.4,0,0.7,0.1,0.8,0.5
		c0.1,0.4,0.2,0.8,0.3,1.2c0.1,0.4-0.1,0.6-0.5,0.7c-1,0.2-2.2,0.4-3.2,0.7c-0.2,0.6-0.4,1.2-0.6,1.8c0.8-0.2,1.6-0.3,2.4-0.3
		c0.4,0,0.7,0.1,0.8,0.4c0.2,0.4,0.3,0.8,0.3,1.2c0.1,0.4,0,0.6-0.5,0.7c-1.1,0.3-2.4,0.5-3.5,0.8c-0.4,0.2-0.9,0.1-1.3-0.2
		c-0.3-0.3-0.6-0.5-0.8-0.9c-0.3-0.4-0.4-0.9-0.2-1.3c0.4-1.8,1.5-5.3,2.4-7.9C14.4,24.9,14.2,24.4,14.1,23.9z"/>
	<path class="st0" d="M22,33c-0.4,0.8-0.8,1.6-1.2,2.3c-0.2,0.4-0.4,0.4-0.8,0.3c-0.4-0.1-0.7-0.4-1-0.7c-0.3-0.3-0.3-0.6,0-1.2
		c1.7-3.6,3.6-7.1,5.6-10.5c0.3-0.5,0.8-0.8,1.4-0.7c0.9,0.1,1.7,0.2,2.5,0.6c0.5,0.2,0.5,0.5,0.5,1c-0.4,2.5-0.8,7.3-1.1,11
		c0,0.5-0.1,0.6-0.6,0.6c-0.4,0-0.8-0.1-1.2-0.2c-0.4-0.1-0.5-0.4-0.5-1s0-1.4,0.1-2.3C24.5,32.5,23,32.7,22,33z M25.9,29.8
		c0.1-1.6,0.3-3.2,0.5-4.6c-0.8,1.3-1.8,3.1-2.8,4.9C24.3,30,25.1,29.9,25.9,29.8z"/>
	<path class="st0" d="M35.5,25c-1.1,3.1-2.3,7.2-3.2,10.3c-0.1,0.4-0.3,0.5-0.7,0.4c-0.4-0.1-0.9-0.3-1.2-0.6
		c-0.4-0.3-0.4-0.6-0.3-1.1c0.4-2.1,1.6-6,2.4-8.6c-0.5,0.1-1,0.2-1.3,0.2s-0.6,0-0.9-0.3c-0.3-0.5-0.4-0.9-0.6-1.4
		c-0.1-0.4,0.1-0.5,0.4-0.6c2.2-0.4,4.4-0.7,6.7-0.7c0.5,0,0.6,0.1,0.8,0.3c0.2,0.4,0.4,0.9,0.5,1.3c0.1,0.4,0,0.5-0.5,0.6L35.5,25z
		"/>
	<path class="st0" d="M43,35.3c-0.1,0.4-0.3,0.5-0.7,0.4c-0.4-0.1-0.9-0.3-1.2-0.6c-0.3-0.3-0.4-0.5-0.3-1.1c0.2-0.8,0.4-1.8,0.8-3
		c-0.6,0.1-1.4,0.2-2.1,0.4c-0.4,1.4-0.8,2.8-1.1,3.9c-0.1,0.4-0.3,0.5-0.7,0.4c-0.4-0.1-0.9-0.3-1.2-0.6C36,34.8,35.9,34.6,36,34
		c0.2-0.7,0.4-1.9,0.8-3.1c-0.1-0.3-0.2-0.6-0.3-0.9c-0.1-0.4,0-0.5,0.3-0.6l0.4-0.1c0.6-2.3,1.4-4.7,1.9-6c0.2-0.5,0.4-0.6,0.9-0.4
		c0.5,0.2,1,0.4,1.4,0.8c0.3,0.2,0.5,0.6,0.3,0.9c0,0,0,0.1,0,0.1c-0.4,1-0.9,2.5-1.4,4.2c0.7-0.1,1.5-0.2,2-0.2
		c0.6-2,1.2-4,1.7-5.5c0.2-0.5,0.4-0.6,0.9-0.4c0.5,0.2,0.9,0.4,1.3,0.7c0.3,0.2,0.5,0.6,0.3,0.9c0,0,0,0,0,0.1
		C45.5,27,44,31.7,43,35.3z"/>
	<path class="st0" d="M47.1,23.9c-0.1-0.4,0-0.5,0.3-0.6c1.9-0.4,3.8-0.7,5.8-0.8c0.4,0,0.7,0.2,0.8,0.6c0.1,0.4,0.2,0.7,0.2,1.1
		c0,0.4-0.1,0.6-0.5,0.6c-0.9,0.1-2.1,0.2-3.1,0.4c-0.3,0.8-0.7,1.8-1,2.7c0.5-0.1,1-0.1,1.5-0.1c0.4,0,0.7,0.1,0.8,0.5
		c0.1,0.4,0.2,0.8,0.3,1.2c0.1,0.4-0.1,0.6-0.5,0.7c-1,0.2-2.2,0.4-3.2,0.7c-0.2,0.6-0.4,1.2-0.6,1.8c0.8-0.2,1.6-0.3,2.4-0.3
		c0.4,0,0.7,0.1,0.8,0.4c0.2,0.4,0.3,0.8,0.3,1.2c0.1,0.4,0,0.6-0.5,0.7c-1.1,0.3-2.4,0.5-3.5,0.8c-0.4,0.2-0.9,0.1-1.3-0.2
		c-0.3-0.3-0.6-0.5-0.8-0.9c-0.3-0.4-0.4-0.9-0.2-1.3c0.4-1.8,1.5-5.3,2.4-7.9C47.4,24.9,47.2,24.4,47.1,23.9z"/>
	<path class="st0" d="M55,35.3c-0.1,0.4-0.3,0.5-0.7,0.4c-0.4-0.1-0.7-0.2-1.1-0.5c-0.4-0.3-0.4-0.5-0.3-1.1
		c0.4-1.8,1.4-5.3,2.4-8.2c-0.2-0.3-0.3-0.7-0.5-1c-0.2-0.5-0.2-0.7,0.3-1c2-1.1,5.7-2,6.9-0.6c0.6,0.7,1,1.6,1.1,2.5
		c0.1,1.1-0.4,2.1-1.2,2.8c-1,0.9-2.1,1.6-3.2,2.2c0.7,1.2,1.6,2.4,2.5,3.4c0.3,0.4,0.2,0.6-0.1,0.8c-0.2,0.2-0.5,0.4-0.9,0.4
		c-0.5,0.2-1.1,0-1.4-0.4c-1-1-1.9-2.2-2.6-3.5C55.7,32.8,55.3,34.1,55,35.3z M57.1,28.9c2.4-0.9,3.9-2.7,3.7-3.4
		c-0.1-0.5-1.2-0.6-2.5,0.1C57.9,26.6,57.5,27.7,57.1,28.9z"/>
	<path class="st0" d="M72.2,31.6c-0.4,1.4-0.8,2.7-1.2,3.9c-0.1,0.4-0.3,0.5-0.7,0.4c-0.4-0.1-0.9-0.3-1.2-0.6
		c-0.3-0.3-0.4-0.5-0.3-1.1c0.2-0.9,0.5-2.2,0.9-3.6c-0.3-2.4-0.7-5.3-1-7.2c-0.1-0.4,0-0.6,0.5-0.6c0.4-0.1,0.9-0.1,1.4,0
		c0.4,0.1,0.6,0.3,0.7,0.9c0.2,1,0.4,2.6,0.6,4.2c1-1.6,2.1-3.4,3.1-5c0.2-0.4,0.5-0.4,0.8-0.2c0.4,0.2,0.7,0.5,0.9,0.8
		c0.3,0.4,0.2,0.6,0,1.2C75.9,26,73.9,29.1,72.2,31.6z"/>
	<path class="st0" d="M84.2,25.6c0.1,2.7-1,7.1-3.2,9.3c-0.7,0.7-1.6,1-2.6,0.8c-0.7-0.1-1.3-0.3-1.9-0.7c-0.5-0.4-0.8-0.9-1-1.4
		c-0.9-2.9,0.9-7.9,3.7-10.2c0.6-0.5,1.4-0.7,2.1-0.6c0.8,0.1,1.5,0.4,2.2,0.9C83.9,24.1,84.2,24.8,84.2,25.6z M78.6,28.9
		c-0.7,1.9-1.1,4.4-0.3,4.7s1.9-1.4,2.7-3.8c0.6-1.8,1.1-4.6,0.4-4.8S79.3,27,78.6,28.9L78.6,28.9z"/>
	<path class="st0" d="M86.7,23.3c0.2-0.5,0.4-0.5,0.9-0.4c0.4,0.2,0.9,0.4,1.2,0.7c0.4,0.3,0.5,0.9,0.2,1.3c-1.1,2.8-3.1,8.1-2,8.5
		c1.4,0.5,3.4-7,4.3-10.3c0.1-0.5,0.4-0.6,0.9-0.4c0.5,0.2,0.9,0.4,1.3,0.7c0.4,0.3,0.4,0.5,0.3,0.9c-1.5,5.4-2.7,9.5-4.6,10.8
		c-0.6,0.4-1.3,0.6-2.1,0.5c-0.7,0-1.3-0.3-1.9-0.7c-0.4-0.3-0.8-0.8-0.9-1.3C83.6,31.4,85.4,26.8,86.7,23.3z"/>
	<path class="st0" d="M105.5,23.3c0.2-0.5,0.4-0.6,0.9-0.4c0.3,0.1,0.6,0.2,0.9,0.4c0.4,0.3,0.6,0.5,0.4,1.2
		c-0.9,2.9-2.4,7.6-3.2,10.7c-0.1,0.5-0.4,0.6-0.9,0.5c-0.4-0.1-0.8-0.3-1.1-0.5c-0.4-0.2-0.6-0.6-0.7-1c-0.4-2-0.6-4-0.7-6.1
		c-0.5,1.6-1.4,4.4-2.2,7.2c-0.1,0.4-0.3,0.5-0.8,0.4c-0.3-0.1-0.6-0.3-0.9-0.4c-0.4-0.3-0.6-0.5-0.4-1.3c0.4-2,2.2-7.7,3.1-10.6
		c0.1-0.4,0.3-0.5,0.6-0.5c0.6,0.1,1.2,0.3,1.7,0.6c0.4,0.2,0.6,0.6,0.6,1c0.1,1.9,0.3,4.2,0.4,6.3
		C103.9,28.5,104.9,25.2,105.5,23.3z"/>
	<path class="st0" d="M108.5,23.9c-0.1-0.4,0-0.5,0.3-0.6c1.9-0.4,3.8-0.7,5.8-0.8c0.4,0,0.7,0.2,0.8,0.6c0.1,0.4,0.2,0.7,0.2,1.1
		c0,0.4-0.1,0.6-0.5,0.6c-0.9,0.1-2.1,0.2-3.1,0.4c-0.3,0.8-0.7,1.8-1,2.7c0.5-0.1,1-0.1,1.5-0.1c0.4,0,0.7,0.1,0.8,0.5
		c0.1,0.4,0.2,0.8,0.3,1.2c0.1,0.4-0.1,0.6-0.5,0.7c-1,0.2-2.2,0.4-3.2,0.7c-0.2,0.6-0.4,1.2-0.6,1.8c0.8-0.2,1.6-0.3,2.4-0.3
		c0.4,0,0.7,0.1,0.8,0.4c0.2,0.4,0.3,0.8,0.3,1.2c0.1,0.4,0,0.6-0.5,0.7c-1.1,0.3-2.4,0.5-3.5,0.8c-0.4,0.2-0.9,0.1-1.3-0.2
		c-0.3-0.3-0.6-0.5-0.8-0.9c-0.3-0.4-0.4-0.9-0.2-1.3c0.4-1.8,1.5-5.3,2.4-7.9C108.8,24.9,108.7,24.4,108.5,23.9z"/>
	<path class="st0" d="M116.2,23.9c-0.1-0.4,0-0.5,0.3-0.6c1.9-0.4,3.8-0.7,5.8-0.8c0.4,0,0.7,0.2,0.8,0.6c0.1,0.4,0.2,0.7,0.2,1.1
		c0,0.4-0.1,0.6-0.5,0.6c-0.9,0.1-2.1,0.2-3.1,0.4c-0.3,0.8-0.7,1.8-1,2.7c0.5-0.1,1-0.1,1.5-0.1c0.4,0,0.7,0.1,0.8,0.5
		c0.1,0.4,0.2,0.8,0.3,1.2c0.1,0.4-0.1,0.6-0.5,0.7c-1,0.2-2.2,0.4-3.2,0.7c-0.2,0.6-0.4,1.2-0.6,1.8c0.8-0.2,1.6-0.3,2.4-0.3
		c0.4,0,0.7,0.1,0.8,0.4c0.2,0.4,0.3,0.8,0.3,1.2c0.1,0.4,0,0.6-0.5,0.7c-1.1,0.3-2.4,0.5-3.5,0.8c-0.4,0.2-0.9,0.1-1.3-0.2
		c-0.3-0.3-0.6-0.5-0.8-0.9c-0.3-0.4-0.4-0.9-0.2-1.3c0.4-1.8,1.5-5.3,2.4-7.9C116.5,24.8,116.3,24.4,116.2,23.9z"/>
	<path class="st0" d="M123.9,24.5c-0.2-0.5-0.2-0.7,0.3-1c2-1.1,6.2-1.8,7.5,1.7c1.1,3.1-1,8.5-6.6,10.5c-0.5,0.2-1,0.2-1.4-0.2
		c-0.4-0.3-0.8-0.7-1.1-1.1c-0.4-0.4-0.6-0.7-0.3-1.7c0.6-2.1,1.4-4.9,2.2-7.3C124.2,25.2,124.1,24.8,123.9,24.5z M129.2,26.1
		c-0.2-0.6-1-1-2-0.6c-0.9,2.4-1.7,5-2.5,7.6C128.6,31.2,129.6,27.3,129.2,26.1L129.2,26.1z"/>
	<path class="st0" d="M141.4,24.6c-0.9,2.5-2.6,7.8-3.4,10.7c-0.1,0.4-0.3,0.5-0.7,0.4c-0.4-0.1-0.9-0.3-1.2-0.6
		c-0.4-0.3-0.4-0.5-0.3-1.1c0.5-2.3,2.2-8.2,3.1-10.7c0.2-0.5,0.4-0.6,0.9-0.4c0.5,0.2,1,0.4,1.4,0.8
		C141.5,23.8,141.6,24.2,141.4,24.6C141.4,24.5,141.4,24.6,141.4,24.6z"/>
	<path class="st0" d="M147.7,25c-1.1,3.1-2.3,7.2-3.2,10.3c-0.1,0.4-0.3,0.5-0.7,0.4c-0.4-0.1-0.9-0.3-1.2-0.6
		c-0.4-0.3-0.4-0.6-0.3-1.1c0.4-2.1,1.6-6,2.4-8.6c-0.5,0.1-1,0.2-1.3,0.2s-0.6,0-0.9-0.3c-0.3-0.5-0.4-0.9-0.6-1.4
		c-0.1-0.4,0.1-0.5,0.4-0.6c2.2-0.4,4.4-0.7,6.7-0.8c0.5,0,0.6,0.1,0.8,0.3c0.2,0.4,0.4,0.9,0.5,1.3c0.1,0.4,0,0.5-0.5,0.6L147.7,25
		z"/>
	<polygon class="st1" points="148.4,37.5 164,12.3 152.5,14.8 157.4,0.1 151.9,0.1 145.2,21 154.5,19.2 	"/>
	<polygon class="st2" points="151.9,0.1 155.1,7.1 157.4,0.1 	"/>
	<polygon class="st3" points="155.1,7.1 148.7,9.9 151.9,0.1 	"/>
	<polygon class="st4" points="148.7,9.9 152.5,14.8 145.2,21 	"/>
	<polygon class="st5" points="152.5,14.8 160.6,17.8 164,12.3 	"/>
	<polygon class="st2" points="154.5,19.2 156.6,24.3 160.6,17.8 	"/>
	<polygon class="st3" points="156.6,24.3 152.9,24 154.5,19.2 	"/>
	<polygon class="st4" points="150.4,31.4 151.7,32.2 148.4,37.5 	"/>
	<polygon class="st5" points="151.7,32.2 150.4,31.4 156.6,24.3 	"/>
	<polygon class="st3" points="152.5,14.8 153.2,19.4 160.6,17.8 	"/>
</g>
</svg>
